<svg width="22" height="16" viewBox="0 0 22 16" fill="none" xmlns="http://www.w3.org/2000/svg">
<path d="M13.645 13.6453C13.5913 13.7008 13.5503 13.7673 13.525 13.8403L13.025 15.3403C12.9978 15.4267 12.9947 15.5189 13.0158 15.6069C13.0369 15.695 13.0816 15.7756 13.145 15.8403C13.1905 15.8894 13.2453 15.9288 13.3063 15.9563C13.3673 15.9838 13.4331 15.9987 13.5 16.0003C13.5531 16.0075 13.6069 16.0075 13.66 16.0003L15.16 15.5003C15.233 15.475 15.2995 15.434 15.355 15.3803L20.25 10.4803L18.545 8.75031L13.645 13.6453ZM20.795 7.00031C20.4743 7.00117 20.167 7.12878 19.94 7.3553L19.25 8.04531L20.955 9.75031L21.645 9.06031C21.8144 8.89206 21.93 8.67729 21.9772 8.44323C22.0243 8.20918 22.0009 7.96639 21.9098 7.74569C21.8187 7.52498 21.6641 7.3363 21.4657 7.20359C21.2672 7.07089 21.0338 7.00013 20.795 7.00031ZM1 11.0003V2.00031C0.734784 2.00031 0.48043 2.10566 0.292893 2.2932C0.105357 2.48073 0 2.73509 0 3.00031V13.0003C0 13.2655 0.105357 13.5199 0.292893 13.7074C0.48043 13.8949 0.734784 14.0003 1 14.0003H8.415C7.31 13.0903 5.3 13.0003 3 13.0003C2.46957 13.0003 1.96086 12.7896 1.58579 12.4145C1.21071 12.0394 1 11.5307 1 11.0003Z" fill="#1E1E1F"/>
<path d="M2.295 0.290293C2.20142 0.383322 2.12717 0.493953 2.07654 0.61581C2.02591 0.737666 1.9999 0.868337 2 1.00029V11.0003C2 11.2655 2.10536 11.5199 2.29289 11.7074C2.48043 11.8949 2.73478 12.0003 3 12.0003C5.805 12.0003 8.23 12.1453 9.5 13.6803V1.30529C7.92 0.125293 5.605 0.000293328 3 0.000293328C2.86879 -0.00297645 2.73834 0.0211211 2.61696 0.0710507C2.49558 0.12098 2.38593 0.195647 2.295 0.290293ZM18 7.88029V1.00029C18.0001 0.868337 17.9741 0.737666 17.9235 0.61581C17.8728 0.493953 17.7986 0.383322 17.705 0.290293C17.6141 0.195647 17.5044 0.12098 17.383 0.0710507C17.2617 0.0211211 17.1312 -0.00297645 17 0.000293328C14.395 0.000293328 12.08 0.125293 10.5 1.30529V13.6803C11.23 12.7953 12.35 12.3753 13.705 12.1803L18 7.88029ZM12.42 14.0003L12.575 13.5003L12.61 13.4253C12.2481 13.5511 11.91 13.737 11.61 13.9753L12.42 14.0003ZM20 6.15529V3.00029C20 2.73508 19.8946 2.48072 19.7071 2.29319C19.5196 2.10565 19.2652 2.00029 19 2.00029V6.88029L19.23 6.64529C19.4508 6.43151 19.7128 6.26481 20 6.15529ZM19 14.0003C19.2652 14.0003 19.5196 13.8949 19.7071 13.7074C19.8946 13.5199 20 13.2655 20 13.0003V12.1203L18.12 14.0003H19Z" fill="#1E1E1F"/>
</svg>
