<svg width="24" height="24" viewBox="0 0 24 24" fill="none" xmlns="http://www.w3.org/2000/svg">
<path d="M11.0493 14.9504L9.19927 16.8004C8.80927 17.1904 8.18927 17.1904 7.78927 16.8104C7.67927 16.7004 7.56927 16.6004 7.45927 16.4904C6.42927 15.4504 5.49927 14.3604 4.66927 13.2204C3.84927 12.0804 3.18927 10.9404 2.70927 9.81037C2.23927 8.67037 1.99927 7.58037 1.99927 6.54037C1.99927 5.86037 2.11927 5.21037 2.35927 4.61037C2.59927 4.00037 2.97927 3.44037 3.50927 2.94037C4.14927 2.31037 4.84927 2.00037 5.58927 2.00037C5.86927 2.00037 6.14927 2.06037 6.39927 2.18037C6.65927 2.30037 6.88927 2.48037 7.06927 2.74037L9.38927 6.01037C9.56927 6.26037 9.69927 6.49037 9.78927 6.71037C9.87927 6.92037 9.92927 7.13037 9.92927 7.32037C9.92927 7.56037 9.85927 7.80037 9.71927 8.03037C9.58927 8.26037 9.39927 8.50037 9.15927 8.74037L8.39927 9.53037C8.28927 9.64037 8.23927 9.77037 8.23927 9.93037C8.23927 10.0104 8.24927 10.0804 8.26927 10.1604C8.29927 10.2404 8.32927 10.3004 8.34927 10.3604C8.52927 10.6904 8.83927 11.1204 9.27927 11.6404C9.72927 12.1604 10.2093 12.6904 10.7293 13.2204C10.8293 13.3204 10.9393 13.4204 11.0393 13.5204C11.4393 13.9104 11.4493 14.5504 11.0493 14.9504Z" fill="#1E1E1F"/>
<path d="M21.97 18.3302C21.97 18.6102 21.92 18.9002 21.82 19.1802C21.79 19.2602 21.76 19.3402 21.72 19.4202C21.55 19.7802 21.33 20.1202 21.04 20.4402C20.55 20.9802 20.01 21.3702 19.4 21.6202C19.39 21.6202 19.38 21.6302 19.37 21.6302C18.78 21.8702 18.14 22.0002 17.45 22.0002C16.43 22.0002 15.34 21.7602 14.19 21.2702C13.04 20.7802 11.89 20.1202 10.75 19.2902C10.36 19.0002 9.96998 18.7102 9.59998 18.4002L12.87 15.1302C13.15 15.3402 13.4 15.5002 13.61 15.6102C13.66 15.6302 13.72 15.6602 13.79 15.6902C13.87 15.7202 13.95 15.7302 14.04 15.7302C14.21 15.7302 14.34 15.6702 14.45 15.5602L15.21 14.8102C15.46 14.5602 15.7 14.3702 15.93 14.2502C16.16 14.1102 16.39 14.0402 16.64 14.0402C16.83 14.0402 17.03 14.0802 17.25 14.1702C17.47 14.2602 17.7 14.3902 17.95 14.5602L21.26 16.9102C21.52 17.0902 21.7 17.3002 21.81 17.5502C21.91 17.8002 21.97 18.0502 21.97 18.3302Z" fill="#1E1E1F"/>
</svg>
