<svg width="22" height="22" viewBox="0 0 22 22" fill="none" xmlns="http://www.w3.org/2000/svg">
<path d="M10.9965 2.34C11.0851 2.34 11.1729 2.32254 11.2548 2.28862C11.3367 2.2547 11.4111 2.20498 11.4738 2.1423C11.5365 2.07962 11.5862 2.00521 11.6201 1.92331C11.654 1.84142 11.6715 1.75364 11.6715 1.665V0.675C11.6715 0.495979 11.6004 0.32429 11.4738 0.197703C11.3472 0.0711159 11.1755 0 10.9965 0C10.8175 0 10.6458 0.0711159 10.5192 0.197703C10.3926 0.32429 10.3215 0.495979 10.3215 0.675V1.665C10.3215 1.75364 10.339 1.84142 10.3729 1.92331C10.4068 2.00521 10.4565 2.07962 10.5192 2.1423C10.6458 2.26888 10.8175 2.34 10.9965 2.34ZM1.665 10.3215H0.675C0.495979 10.3215 0.32429 10.3926 0.197703 10.5192C0.0711159 10.6458 0 10.8175 0 10.9965C0 11.1755 0.0711159 11.3472 0.197703 11.4738C0.32429 11.6004 0.495979 11.6715 0.675 11.6715H1.66425C1.84327 11.6716 2.015 11.6006 2.14166 11.4741C2.26831 11.3475 2.33953 11.1759 2.33962 10.9969C2.33972 10.8179 2.2687 10.6461 2.14219 10.5195C2.01567 10.3928 1.84402 10.3216 1.665 10.3215ZM21.318 10.3215H20.3287C20.1497 10.3215 19.978 10.3926 19.8515 10.5192C19.7249 10.6458 19.6537 10.8175 19.6537 10.9965C19.6537 11.1755 19.7249 11.3472 19.8515 11.4738C19.978 11.6004 20.1497 11.6715 20.3287 11.6715H21.318C21.497 11.6715 21.6687 11.6004 21.7953 11.4738C21.9219 11.3472 21.993 11.1755 21.993 10.9965C21.993 10.8175 21.9219 10.6458 21.7953 10.5192C21.6687 10.3926 21.497 10.3215 21.318 10.3215ZM17.8185 3.2205L17.1172 3.92025C17.0545 3.98294 17.0047 4.05737 16.9708 4.1393C16.9368 4.22123 16.9193 4.30904 16.9192 4.39773C16.9192 4.48643 16.9366 4.57426 16.9706 4.65621C17.0045 4.73816 17.0542 4.81264 17.1169 4.87538C17.1796 4.93811 17.254 4.98789 17.3359 5.02186C17.4179 5.05584 17.5057 5.07334 17.5944 5.07338C17.6831 5.07341 17.7709 5.05598 17.8528 5.02207C17.9348 4.98816 18.0093 4.93844 18.072 4.87575L18.7732 4.176C18.9 4.04939 18.9712 3.87764 18.9713 3.69852C18.9713 3.51939 18.9002 3.34758 18.7736 3.22087C18.647 3.09417 18.4753 3.02294 18.2961 3.02287C18.117 3.0228 17.9452 3.09389 17.8185 3.2205ZM4.87575 4.875C4.93845 4.81232 4.98819 4.7379 5.02213 4.65599C5.05606 4.57408 5.07353 4.48629 5.07353 4.39762C5.07353 4.30896 5.05606 4.22117 5.02213 4.13926C4.98819 4.05735 4.93845 3.98293 4.87575 3.92025L4.1745 3.2205C4.04699 3.09844 3.87674 3.03118 3.70023 3.03314C3.52373 3.0351 3.35501 3.10612 3.23024 3.23099C3.10548 3.35585 3.03459 3.52462 3.03276 3.70113C3.03094 3.87764 3.09834 4.04784 3.2205 4.17525L3.92175 4.875C3.98422 4.93795 4.05853 4.98791 4.14039 5.02201C4.22226 5.0561 4.31007 5.07366 4.39875 5.07366C4.48743 5.07366 4.57524 5.0561 4.65711 5.02201C4.73897 4.98791 4.81328 4.93795 4.87575 4.875ZM10.2465 4.92825C7.5465 5.2455 5.316 7.3725 4.88925 10.0582C4.7039 11.1764 4.82945 12.3241 5.25218 13.3757C5.67491 14.4274 6.37856 15.3427 7.28625 16.0215C7.776 16.389 8.08425 16.9417 8.10225 17.5507H13.89C13.9057 16.9455 14.2095 16.3927 14.697 16.029C15.4695 15.4541 16.0969 14.7064 16.5288 13.8457C16.9608 12.985 17.1854 12.0352 17.1847 11.0722C17.1847 10.1962 16.9987 9.33023 16.6391 8.53145C16.2794 7.73267 15.7544 7.01932 15.0985 6.43857C14.4427 5.85782 13.6711 5.42289 12.8347 5.16253C11.9982 4.90217 11.1161 4.82232 10.2465 4.92825ZM8.109 18.678V18.7875C8.109 19.59 8.4315 20.31 8.9565 20.8275C9.474 21.3525 10.2015 21.675 10.9965 21.675C12.594 21.675 13.884 20.385 13.884 18.7875V18.678H8.109Z" fill="#1E1E1F"/>
</svg>
