<svg width="24" height="24" viewBox="0 0 24 24" fill="none" xmlns="http://www.w3.org/2000/svg">
<path d="M20.6195 8.44963C19.5695 3.82963 15.5395 1.74963 11.9995 1.74963C11.9995 1.74963 11.9995 1.74963 11.9895 1.74963C8.45948 1.74963 4.41948 3.81963 3.36948 8.43963C2.19949 13.5996 5.35949 17.9696 8.21948 20.7196C9.27948 21.7396 10.6395 22.2496 11.9995 22.2496C13.3595 22.2496 14.7195 21.7396 15.7695 20.7196C18.6295 17.9696 21.7895 13.6096 20.6195 8.44963ZM11.9995 13.4596C10.2595 13.4596 8.84948 12.0496 8.84948 10.3096C8.84948 8.56963 10.2595 7.15963 11.9995 7.15963C13.7395 7.15963 15.1495 8.56963 15.1495 10.3096C15.1495 12.0496 13.7395 13.4596 11.9995 13.4596Z" fill="#1E1E1F"/>
</svg>
