<svg width="111" height="111" viewBox="0 0 111 111" fill="none" xmlns="http://www.w3.org/2000/svg">
<path d="M81.9714 56.1761C86.6551 59.1028 92.8244 57.6785 95.7511 52.9948C98.6778 48.3112 97.2535 42.1418 92.5698 39.2151C87.8862 36.2885 81.7168 37.7128 78.7901 42.3964C75.8635 47.0801 77.2878 53.2494 81.9714 56.1761Z" fill="#52E9B3"/>
<path d="M81.7253 61.6034C81.6687 61.5681 81.5945 61.561 81.538 61.5257C81.22 61.4056 80.9197 61.2572 80.5734 61.1195C79.3155 60.4906 78.0787 59.6392 76.9373 58.5723C76.6511 58.2755 76.4038 58.0423 76.1635 57.7349C75.3719 56.9259 74.7252 56.0108 74.2057 55.018C73.9725 54.6364 73.7746 54.1983 73.5873 53.8061C72.8133 52.0254 72.3786 50.1422 72.2936 48.2024C72.29 47.7678 72.2758 47.2873 72.3182 46.8421C72.3499 45.722 72.53 44.616 72.8867 43.5419C72.968 43.1603 73.0881 42.8423 73.2152 42.4501C73.7734 40.9907 74.5117 39.6833 75.3667 38.5667C75.6175 38.2911 75.8224 38.0261 76.0556 37.7787C76.0909 37.7222 76.1545 37.6833 76.1898 37.6268C77.6242 36.0861 77.3484 33.634 75.5392 32.5035L58.3521 21.7638C57.9564 21.5165 57.5429 21.2975 57.1578 21.0961C56.8009 20.9124 56.4723 20.7464 56.0977 20.591C55.7409 20.4073 55.3663 20.2518 55.02 20.1141C47.5891 16.8464 40.5332 18.4512 35.2692 24.6739C35.0183 24.9495 34.7498 25.2534 34.5096 25.575C34.2411 25.8789 34.0185 26.1722 33.7783 26.4937C33.5204 26.8435 33.2448 27.2216 32.9975 27.6174L18.937 50.1189C18.6897 50.5147 18.4707 50.9281 18.2693 51.3133C18.0856 51.6701 17.9196 51.9988 17.7641 52.3733C17.5804 52.7302 17.425 53.1047 17.2872 53.451C14.0019 60.9102 15.6527 67.9555 21.8471 73.2019C22.1227 73.4527 22.4266 73.7212 22.7482 73.9615C23.0521 74.23 23.3453 74.4525 23.6669 74.6928C24.0167 74.9507 24.3948 75.2262 24.7906 75.4735L47.2921 89.5341C47.6879 89.7814 48.1013 90.0004 48.4864 90.2017C48.8433 90.3854 49.1719 90.5515 49.5465 90.7069C49.9034 90.8906 50.2779 91.046 50.6242 91.1838C58.0551 94.4514 65.111 92.8466 70.3751 86.624C70.6259 86.3483 70.8944 86.0445 71.1346 85.7229C71.4031 85.419 71.6257 85.1257 71.8659 84.8042C72.1238 84.4543 72.3994 84.0762 72.6467 83.6805L83.3864 66.4934C84.5169 64.6842 83.6899 62.3594 81.7253 61.6034ZM39.3947 47.2586L53.5288 56.0905C54.6878 56.8148 55.0484 58.3765 54.3241 59.5355C53.5999 60.6945 52.0382 61.055 50.8792 60.3308L36.7451 51.4988C35.5861 50.7746 35.2255 49.2129 35.9498 48.0539C36.674 46.8949 38.2357 46.5343 39.3947 47.2586ZM55.1209 78.7037L29.6795 62.8061C28.5205 62.0819 28.16 60.5202 28.8842 59.3612C29.6084 58.2022 31.1701 57.8416 32.3291 58.5659L57.7705 74.4634C58.9295 75.1877 59.2901 76.7494 58.5659 77.9084C57.8416 79.0674 56.2799 79.4279 55.1209 78.7037Z" fill="#52E9B3"/>
</svg>
