<svg width="24" height="24" viewBox="0 0 24 24" fill="none" xmlns="http://www.w3.org/2000/svg">
<path d="M16.9992 3.50037H6.99921C3.99921 3.50037 1.99921 5.00037 1.99921 8.50037V15.5004C1.99921 19.0004 3.99921 20.5004 6.99921 20.5004H16.9992C19.9992 20.5004 21.9992 19.0004 21.9992 15.5004V8.50037C21.9992 5.00037 19.9992 3.50037 16.9992 3.50037ZM17.4692 9.59037L14.3392 12.0904C13.6792 12.6204 12.8392 12.8804 11.9992 12.8804C11.1592 12.8804 10.3092 12.6204 9.65921 12.0904L6.52921 9.59037C6.20921 9.33037 6.15921 8.85037 6.40921 8.53037C6.66921 8.21037 7.13921 8.15037 7.45921 8.41037L10.5892 10.9104C11.3492 11.5204 12.6392 11.5204 13.3992 10.9104L16.5292 8.41037C16.8492 8.15037 17.3292 8.20037 17.5792 8.53037C17.8392 8.85037 17.7892 9.33037 17.4692 9.59037Z" fill="#1E1E1F"/>
</svg>
