<svg width="17" height="20" viewBox="0 0 17 20" fill="none" xmlns="http://www.w3.org/2000/svg">
<path fill-rule="evenodd" clip-rule="evenodd" d="M14.7692 9.21655V3.71655H16.2692V9.21655C16.2692 9.41547 16.1901 9.60623 16.0495 9.74688C15.9088 9.88754 15.7181 9.96655 15.5192 9.96655C15.3203 9.96655 15.1295 9.88754 14.9888 9.74688C14.8482 9.60623 14.7692 9.41547 14.7692 9.21655Z" fill="#1E1E1F"/>
<path d="M12.2692 7.71655V4.71655H4.26917V7.71655C4.26917 8.77742 4.69059 9.79484 5.44074 10.545C6.19088 11.2951 7.2083 11.7166 8.26917 11.7166C9.33003 11.7166 10.3474 11.2951 11.0976 10.545C11.8477 9.79484 12.2692 8.77742 12.2692 7.71655Z" fill="#1E1E1F"/>
<path d="M0.297143 3.2596L7.05114 0.258603C7.43474 0.0880999 7.84986 0 8.26964 0C8.68943 0 9.10454 0.0880999 9.48814 0.258603L16.2411 3.2596C16.3296 3.29886 16.4047 3.36293 16.4575 3.44405C16.5102 3.52517 16.5383 3.61985 16.5383 3.7166C16.5383 3.81336 16.5102 3.90804 16.4575 3.98916C16.4047 4.07027 16.3296 4.13435 16.2411 4.1736L9.48914 7.1746C9.10554 7.34511 8.69043 7.43321 8.27064 7.43321C7.85086 7.43321 7.43574 7.34511 7.05214 7.1746L0.297143 4.1736C0.208707 4.13435 0.13356 4.07027 0.080817 3.98916C0.0280738 3.90804 0 3.81336 0 3.7166C0 3.61985 0.0280738 3.52517 0.080817 3.44405C0.13356 3.36293 0.208707 3.29886 0.297143 3.2596ZM10.5691 13.1166L8.98014 14.7226C8.88715 14.8166 8.77642 14.8913 8.65438 14.9422C8.53233 14.9932 8.40139 15.0194 8.26914 15.0194C8.13689 15.0194 8.00595 14.9932 7.88391 14.9422C7.76187 14.8913 7.65114 14.8166 7.55814 14.7226L5.96914 13.1166C5.85048 12.9932 5.70061 12.9043 5.53546 12.8592C5.37031 12.8141 5.19604 12.8146 5.03114 12.8606C2.22614 13.6866 0.269143 15.5496 0.269143 17.7166C0.269143 18.247 0.479856 18.7557 0.854929 19.1308C1.23 19.5059 1.73871 19.7166 2.26914 19.7166H14.2691C14.7996 19.7166 15.3083 19.5059 15.6834 19.1308C16.0584 18.7557 16.2691 18.247 16.2691 17.7166C16.2691 15.5496 14.3121 13.6866 11.5071 12.8606C11.3422 12.8146 11.168 12.8141 11.0028 12.8592C10.8377 12.9043 10.6878 12.9932 10.5691 13.1166Z" fill="#1E1E1F"/>
</svg>
