<svg width="20" height="20" viewBox="0 0 20 20" fill="none" xmlns="http://www.w3.org/2000/svg">
<path d="M10 12C11.933 12 13.5 10.433 13.5 8.5C13.5 6.567 11.933 5 10 5C8.067 5 6.5 6.567 6.5 8.5C6.5 10.433 8.067 12 10 12Z" fill="#1E1E1F"/>
<path d="M17 0H3C1.35 0 0 1.35 0 3V14C0 15.65 1.35 17 3 17H4.35C4.12 17.63 4 18.3 4 19C4 19.55 4.45 20 5.002 20H14.998C15.55 20 16 19.55 16 19C16 18.3 15.88 17.63 15.65 17H17C18.65 17 20 15.65 20 14V3C20 1.35 18.65 0 17 0ZM17.998 14C17.998 14.55 17.548 15 17 15H14.46C13.37 13.77 11.769 13 10 13C8.231 13 6.63 13.77 5.54 15H3C2.451 15 2.002 14.55 2.002 14V3C2.002 2.45 2.452 2 3 2H17C17.549 2 17.998 2.45 17.998 3V14Z" fill="#1E1E1F"/>
</svg>
