<svg width="34" height="34" viewBox="0 0 34 34" fill="none" xmlns="http://www.w3.org/2000/svg">
<rect width="33.8049" height="33.8049" rx="7.58409" fill="url(#paint0_radial_13807_23637)"/>
<g clip-path="url(#clip0_13807_23637)">
<path d="M16.9077 6.18695C16.949 6.18695 16.9899 6.17882 17.028 6.16303C17.0661 6.14723 17.1007 6.12409 17.1299 6.09491C17.1591 6.06573 17.1823 6.03108 17.198 5.99296C17.2138 5.95483 17.222 5.91397 17.222 5.8727V5.41181C17.222 5.32847 17.1889 5.24854 17.1299 5.1896C17.071 5.13067 16.9911 5.09756 16.9077 5.09756C16.8244 5.09756 16.7445 5.13067 16.6855 5.1896C16.6266 5.24854 16.5935 5.32847 16.5935 5.41181V5.8727C16.5935 5.91397 16.6016 5.95483 16.6174 5.99296C16.6332 6.03108 16.6563 6.06573 16.6855 6.09491C16.7445 6.15384 16.8244 6.18695 16.9077 6.18695ZM12.5635 9.90271H12.1026C12.0192 9.90271 11.9393 9.93582 11.8804 9.99475C11.8214 10.0537 11.7883 10.1336 11.7883 10.217C11.7883 10.3003 11.8214 10.3802 11.8804 10.4392C11.9393 10.4981 12.0192 10.5312 12.1026 10.5312H12.5631C12.6465 10.5313 12.7264 10.4982 12.7854 10.4393C12.8443 10.3804 12.8775 10.3005 12.8775 10.2171C12.8776 10.1338 12.8445 10.0538 12.7856 9.99488C12.7267 9.93591 12.6468 9.90276 12.5635 9.90271ZM21.7129 9.90271H21.2523C21.169 9.90271 21.0891 9.93582 21.0301 9.99475C20.9712 10.0537 20.9381 10.1336 20.9381 10.217C20.9381 10.3003 20.9712 10.3802 21.0301 10.4392C21.0891 10.4981 21.169 10.5312 21.2523 10.5312H21.7129C21.7962 10.5312 21.8761 10.4981 21.9351 10.4392C21.994 10.3802 22.0271 10.3003 22.0271 10.217C22.0271 10.1336 21.994 10.0537 21.9351 9.99475C21.8761 9.93582 21.7962 9.90271 21.7129 9.90271ZM20.0837 6.59686L19.7572 6.92263C19.728 6.95181 19.7048 6.98647 19.689 7.02461C19.6732 7.06275 19.6651 7.10363 19.665 7.14492C19.665 7.18621 19.6731 7.2271 19.6889 7.26525C19.7047 7.30341 19.7279 7.33808 19.7571 7.36728C19.7862 7.39649 19.8209 7.41967 19.859 7.43548C19.8972 7.4513 19.9381 7.45945 19.9793 7.45946C20.0206 7.45948 20.0615 7.45136 20.0997 7.43558C20.1378 7.41979 20.1725 7.39664 20.2017 7.36746L20.5282 7.04169C20.5872 6.98275 20.6203 6.90279 20.6204 6.8194C20.6204 6.73601 20.5873 6.65602 20.5283 6.59704C20.4694 6.53805 20.3894 6.50489 20.3061 6.50486C20.2227 6.50482 20.1427 6.53792 20.0837 6.59686ZM14.0582 7.36711C14.0874 7.33793 14.1106 7.30328 14.1264 7.26515C14.1422 7.22702 14.1503 7.18614 14.1503 7.14487C14.1503 7.10359 14.1422 7.06272 14.1264 7.02459C14.1106 6.98646 14.0874 6.95181 14.0582 6.92263L13.7318 6.59686C13.6724 6.54003 13.5931 6.50872 13.511 6.50963C13.4288 6.51055 13.3502 6.54361 13.2922 6.60174C13.2341 6.65987 13.2011 6.73844 13.2002 6.82062C13.1994 6.90279 13.2308 6.98203 13.2876 7.04134L13.6141 7.36711C13.6432 7.39642 13.6778 7.41968 13.7159 7.43555C13.754 7.45142 13.7949 7.45959 13.8362 7.45959C13.8774 7.45959 13.9183 7.45142 13.9564 7.43555C13.9945 7.41968 14.0291 7.39642 14.0582 7.36711ZM16.5586 7.3919C15.3016 7.53959 14.2632 8.52981 14.0645 9.78016C13.9782 10.3007 14.0367 10.835 14.2335 11.3246C14.4303 11.8142 14.7579 12.2403 15.1804 12.5563C15.4084 12.7274 15.5519 12.9848 15.5603 13.2683H18.2548C18.2621 12.9865 18.4035 12.7292 18.6305 12.5598C18.9901 12.2922 19.2822 11.9441 19.4833 11.5434C19.6844 11.1427 19.789 10.7005 19.7887 10.2522C19.7886 9.8444 19.702 9.44123 19.5346 9.06936C19.3672 8.69749 19.1227 8.36539 18.8174 8.09503C18.5121 7.82466 18.1529 7.62218 17.7635 7.50097C17.3741 7.37976 16.9634 7.34258 16.5586 7.3919ZM15.5635 13.7931V13.844C15.5635 14.2176 15.7136 14.5528 15.958 14.7938C16.1989 15.0382 16.5376 15.1883 16.9077 15.1883C17.6514 15.1883 18.252 14.5878 18.252 13.844V13.7931H15.5635Z" fill="white"/>
<path d="M10.3479 16.3122H10.3463C10.2583 16.3121 10.1712 16.3272 10.0899 16.3567C10.0086 16.3862 9.93482 16.4296 9.87276 16.4842C9.80948 16.5393 9.75931 16.6048 9.72516 16.677C9.69102 16.7492 9.67357 16.8266 9.67383 16.9048V25.7902C9.67383 26.116 9.97737 26.3817 10.3506 26.3826C11.9238 26.3859 14.5596 26.6733 16.3779 28.3416V19.0428C16.3779 18.9323 16.3457 18.8286 16.285 18.7427C14.7926 16.6356 11.9247 16.3155 10.3479 16.3122ZM24.1313 25.7902V16.9047C24.1313 16.7457 24.0606 16.5963 23.9323 16.4842C23.8703 16.4295 23.7965 16.3862 23.7152 16.3567C23.6339 16.3271 23.5468 16.312 23.4589 16.3122H23.4572C21.8805 16.3155 19.0126 16.6356 17.5201 18.7427C17.4594 18.8286 17.4273 18.9323 17.4273 19.0428V28.3415C19.2456 26.6733 21.8814 26.3858 23.4546 26.3825C23.8277 26.3817 24.1313 26.116 24.1313 25.7902Z" fill="white"/>
<path d="M25.6705 18.3614H25.1805V25.7902C25.1805 26.6222 24.4073 27.3005 23.457 27.3026C22.1225 27.3054 19.9223 27.5341 18.364 28.8272C21.059 28.2486 23.9001 28.6247 25.5192 28.9482C25.6184 28.9683 25.7215 28.9684 25.8207 28.9485C25.92 28.9287 26.0128 28.8894 26.0923 28.8337C26.1717 28.7783 26.2359 28.708 26.2799 28.6278C26.3238 28.5477 26.3466 28.4598 26.3463 28.3709V18.9538C26.3464 18.6272 26.0431 18.3614 25.6705 18.3614ZM8.62433 25.7902V18.3614H8.13426C7.76172 18.3614 7.4585 18.6272 7.4585 18.9538V28.3707C7.4585 28.5519 7.55109 28.7206 7.7125 28.8335C7.79195 28.8893 7.88479 28.9286 7.98404 28.9484C8.08329 28.9683 8.18637 28.9681 8.28556 28.948C9.9047 28.6245 12.7458 28.2485 15.4408 28.827C13.8825 27.534 11.6823 27.3053 10.3478 27.3025C9.39752 27.3005 8.62433 26.6222 8.62433 25.7902Z" fill="white"/>
</g>
<defs>
<radialGradient id="paint0_radial_13807_23637" cx="0" cy="0" r="1" gradientUnits="userSpaceOnUse" gradientTransform="translate(16.9024 16.9024) scale(29.7483 25.3537)">
<stop offset="0.374455" stop-color="#1B44FE"/>
<stop offset="1" stop-color="#5375FE"/>
</radialGradient>
<clipPath id="clip0_13807_23637">
<rect width="23.6098" height="24.2566" fill="white" transform="translate(5.09766 4.77411)"/>
</clipPath>
</defs>
</svg>
